<svg xmlns="http://www.w3.org/2000/svg" style="display:none" aria-hidden="true" xmlns:c2pa="http://c2pa.org/manifest"><metadata><c2pa:manifest>AAAWgmp1bWIAAAAeanVtZGMycGEAEQAQgAAAqgA4m3EDYzJwYQAAABZcanVtYgAAAEdqdW1kYzJtYQARABCAAACqADibcQN1cm46YzJwYTo5Y2I1YWY1My04OTBiLTQwNjUtOTFlMC1kNGMwMzNlNTdmMTYAAAADl2p1bWIAAAApanVtZGMyYXMAEQAQgAAAqgA4m3EDYzJwYS5hc3NlcnRpb25zAAAAALxqdW1iAAAARGp1bWRjYm9yABEAEIAAAKoAOJtxE2MycGEuaW5ncmVkaWVudC52MwAAAAAYYzJzaJfiSt32HVgJTilIM9q4cb8AAABwY2JvcqNpZGM6Zm9ybWF0bWltYWdlL3N2Zyt4bWxqaW5zdGFuY2VJRHgseG1wOmlpZDo1NzkxMWQ4Ny05ZmFmLTQzZDUtYjQ5Ni1hYWNjNjU4MTY1NDBscmVsYXRpb25zaGlwaHBhcmVudE9mAAAB4mp1bWIAAABBanVtZGNib3IAEQAQgAAAqgA4m3ETYzJwYS5hY3Rpb25zLnYyAAAAABhjMnNoE0yXXPvqHQf5p/wAb9kd4gAAAZljYm9yomdhY3Rpb25zgqJmYWN0aW9ua2MycGEub3BlbmVkanBhcmFtZXRlcnOha2luZ3JlZGllbnRzgaJjdXJseC1zZWxmI2p1bWJmPWMycGEuYXNzZXJ0aW9ucy9jMnBhLmluZ3JlZGllbnQudjNkaGFzaFggTPfmMnEtIWBORfBUqNMkFE8PB680W0DyJL0b2OfikVukZmFjdGlvbngdY29tLmFudGhyb3BpYy5jbGF1ZGUucHJvdmlkZWRqcGFyYW1ldGVyc6F4H2NvbS5hbnRocm9waWMub3JpZ2luLWNvbmZpZGVuY2VndW5rbm93bmtkZXNjcmlwdGlvbnhmQ2xhdWRlIHByb3ZpZGVkIHRoaXMgZmlsZSBhdCB0aGUgcmVxdWVzdCBvZiBhIHVzZXIgYW5kIG1heSBoYXZlIGNyZWF0ZWQgb3IgbW9kaWZpZWQgdGhlIGZpbGUgY29udGVudHMubXNvZnR3YXJlQWdlbnShZG5hbWVmQ2xhdWRlcmFsbEFjdGlvbnNJbmNsdWRlZPUAAADIanVtYgAAAEBqdW1kY2JvcgARABCAAACqADibcRNjMnBhLmhhc2guZGF0YQAAAAAYYzJzaLULKe0kqiO2pMWxFFER1k8AAACAY2JvcqVjYWxnZnNoYTI1NmNwYWRNAAAAAAAAAAAAAAAAAGRoYXNoWCDBZ6PWIRBGYsVRnwuuMPf0fJKB+tulMJw/n5/lNnBVl2RuYW1lbmp1bWJmIG1hbmlmZXN0amV4Y2x1c2lvbnOBomVzdGFydBiPZmxlbmd0aBkeBAAAAj5qdW1iAAAAJ2p1bWRjMmNsABEAEIAAAKoAOJtxA2MycGEuY2xhaW0udjIAAAACD2Nib3KlY2FsZ2ZzaGEyNTZpc2lnbmF0dXJleE1zZWxmI2p1bWJmPS9jMnBhL3VybjpjMnBhOjljYjVhZjUzLTg5MGItNDA2NS05MWUwLWQ0YzAzM2U1N2YxNi9jMnBhLnNpZ25hdHVyZWppbnN0YW5jZUlEeCx4bXA6aWlkOmE0ZjI4ODc3LTVlOGUtNDNlZC1hMThhLTRjN2RkY2M1NDMxNHJjcmVhdGVkX2Fzc2VydGlvbnODomN1cmx4LXNlbGYjanVtYmY9YzJwYS5hc3NlcnRpb25zL2MycGEuaW5ncmVkaWVudC52M2RoYXNoWCBM9+YycS0hYE5F8FSo0yQUTw8HrzRbQPIkvRvY5+KRW6JjdXJseCpzZWxmI2p1bWJmPWMycGEuYXNzZXJ0aW9ucy9jMnBhLmFjdGlvbnMudjJkaGFzaFggK60C8hmp+XXaKa0E7Go5FlKUZqXXZ1DyE3O1SylPOM6iY3VybHgpc2VsZiNqdW1iZj1jMnBhLmFzc2VydGlvbnMvYzJwYS5oYXNoLmRhdGFkaGFzaFggEY8GVJoCtUu/GCBoi6aat0nKwE7FX/uxHU2xp2FvrG90Y2xhaW1fZ2VuZXJhdG9yX2luZm+jZG5hbWVvQW50aHJvcGljIEZpbGVzZ3ZlcnNpb25lMS4wLjBrc3BlY1ZlcnNpb25lMi40LjAAABA4anVtYgAAAChqdW1kYzJjcwARABCAAACqADibcQNjMnBhLnNpZ25hdHVyZQAAABAIY2JvctKEWQISogEmGCFZAgowggIGMIIBjaADAgECAhRA5aAK7sI50L64g/oGQgU9Z1UTADAKBggqhkjOPQQDAzBJMRcwFQYDVQQKEw5BbnRocm9waWMsIFBCQzEuMCwGA1UEAxMlQW50aHJvcGljIENvbnRlbnQgQ3JlZGVudGlhbHMgUm9vdCBDQTAeFw0yNjA4MDcxODQzNTZaFw0yODA4MDYxOTQzNTZaMEQxFzAVBgNVBAoTDkFudGhyb3BpYywgUEJDMSkwJwYDVQQDEyBBbnRocm9waWMgQ2xhdWRlIENvbnRlbnQgU2lnbmluZzBZMBMGByqGSM49AgEGCCqGSM49AwEHA0IABJh6CmvLUBgFFNU0vUKlOVtE6djd17L5SuwX0LemFisBM3dkd/3cyjxFA3Qo5S46fX0/ihY0VZ7mfb9KF703t5OjWDBWMA4GA1UdDwEB/wQEAwIHgDAVBgNVHSUEDjAMBgorBgEEAYPoXgIBMAwGA1UdEwEB/wQCMAAwHwYDVR0jBBgwFoAUzlHiBIFOZFsj+OPEz5o+nMHXXMIwCgYIKoZIzj0EAwMDZwAwZAIwMXMdFJ4BetLLVY7ORuE9noqbbAZOZn/aArXyTwFAZfKrPzxF2vPoJNf1+UCdg1XGAjBwX1zd9WGqYkqmL5SFqw1QySjr1zJfpJM9+1rdDwSPLMOPOjKuiXjoU/pUUeG9RwmhY3BhZFkNngAAAAAAAAAAAAAAAAAAAAAAAAAAAAAAAAAAAAAAAAAAAAAAAAAAAAAAAAAAAAAAAAAAAAAAAAAAAAAAAAAAAAAAAAAAAAAAAAAAAAAAAAAAAAAAAAAAAAAAAAAAAAAAAAAAAAAAAAAAAAAAAAAAAAAAAAAAAAAAAAAAAAAAAAAAAAAAAAAAAAAAAAAAAAAAAAAAAAAAAAAAAAAAAAAAAAAAAAAAAAAAAAAAAAAAAAAAAAAAAAAAAAAAAAAAAAAAAAAAAAAAAAAAAAAAAAAAAAAAAAAAAAAAAAAAAAAAAAAAAAAAAAAAAAAAAAAAAAAAAAAAAAAAAAAAAAAAAAAAAAAAAAAAAAAAAAAAAAAAAAAAAAAAAAAAAAAAAAAAAAAAAAAAAAAAAAAAAAAAAAAAAAAAAAAAAAAAAAAAAAAAAAAAAAAAAAAAAAAAAAAAAAAAAAAAAAAAAAAAAAAAAAAAAAAAAAAAAAAAAAAAAAAAAAAAAAAAAAAAAAAAAAAAAAAAAAAAAAAAAAAAAAAAAAAAAAAAAAAAAAAAAAAAAAAAAAAAAAAAAAAAAAAAAAAAAAAAAAAAAAAAAAAAAAAAAAAAAAAAAAAAAAAAAAAAAAAAAAAAAAAAAAAAAAAAAAAAAAAAAAAAAAAAAAAAAAAAAAAAAAAAAAAAAAAAAAAAAAAAAAAAAAAAAAAAAAAAAAAAAAAAAAAAAAAAAAAAAAAAAAAAAAAAAAAAAAAAAAAAAAAAAAAAAAAAAAAAAAAAAAAAAAAAAAAAAAAAAAAAAAAAAAAAAAAAAAAAAAAAAAAAAAAAAAAAAAAAAAAAAAAAAAAAAAAAAAAAAAAAAAAAAAAAAAAAAAAAAAAAAAAAAAAAAAAAAAAAAAAAAAAAAAAAAAAAAAAAAAAAAAAAAAAAAAAAAAAAAAAAAAAAAAAAAAAAAAAAAAAAAAAAAAAAAAAAAAAAAAAAAAAAAAAAAAAAAAAAAAAAAAAAAAAAAAAAAAAAAAAAAAAAAAAAAAAAAAAAAAAAAAAAAAAAAAAAAAAAAAAAAAAAAAAAAAAAAAAAAAAAAAAAAAAAAAAAAAAAAAAAAAAAAAAAAAAAAAAAAAAAAAAAAAAAAAAAAAAAAAAAAAAAAAAAAAAAAAAAAAAAAAAAAAAAAAAAAAAAAAAAAAAAAAAAAAAAAAAAAAAAAAAAAAAAAAAAAAAAAAAAAAAAAAAAAAAAAAAAAAAAAAAAAAAAAAAAAAAAAAAAAAAAAAAAAAAAAAAAAAAAAAAAAAAAAAAAAAAAAAAAAAAAAAAAAAAAAAAAAAAAAAAAAAAAAAAAAAAAAAAAAAAAAAAAAAAAAAAAAAAAAAAAAAAAAAAAAAAAAAAAAAAAAAAAAAAAAAAAAAAAAAAAAAAAAAAAAAAAAAAAAAAAAAAAAAAAAAAAAAAAAAAAAAAAAAAAAAAAAAAAAAAAAAAAAAAAAAAAAAAAAAAAAAAAAAAAAAAAAAAAAAAAAAAAAAAAAAAAAAAAAAAAAAAAAAAAAAAAAAAAAAAAAAAAAAAAAAAAAAAAAAAAAAAAAAAAAAAAAAAAAAAAAAAAAAAAAAAAAAAAAAAAAAAAAAAAAAAAAAAAAAAAAAAAAAAAAAAAAAAAAAAAAAAAAAAAAAAAAAAAAAAAAAAAAAAAAAAAAAAAAAAAAAAAAAAAAAAAAAAAAAAAAAAAAAAAAAAAAAAAAAAAAAAAAAAAAAAAAAAAAAAAAAAAAAAAAAAAAAAAAAAAAAAAAAAAAAAAAAAAAAAAAAAAAAAAAAAAAAAAAAAAAAAAAAAAAAAAAAAAAAAAAAAAAAAAAAAAAAAAAAAAAAAAAAAAAAAAAAAAAAAAAAAAAAAAAAAAAAAAAAAAAAAAAAAAAAAAAAAAAAAAAAAAAAAAAAAAAAAAAAAAAAAAAAAAAAAAAAAAAAAAAAAAAAAAAAAAAAAAAAAAAAAAAAAAAAAAAAAAAAAAAAAAAAAAAAAAAAAAAAAAAAAAAAAAAAAAAAAAAAAAAAAAAAAAAAAAAAAAAAAAAAAAAAAAAAAAAAAAAAAAAAAAAAAAAAAAAAAAAAAAAAAAAAAAAAAAAAAAAAAAAAAAAAAAAAAAAAAAAAAAAAAAAAAAAAAAAAAAAAAAAAAAAAAAAAAAAAAAAAAAAAAAAAAAAAAAAAAAAAAAAAAAAAAAAAAAAAAAAAAAAAAAAAAAAAAAAAAAAAAAAAAAAAAAAAAAAAAAAAAAAAAAAAAAAAAAAAAAAAAAAAAAAAAAAAAAAAAAAAAAAAAAAAAAAAAAAAAAAAAAAAAAAAAAAAAAAAAAAAAAAAAAAAAAAAAAAAAAAAAAAAAAAAAAAAAAAAAAAAAAAAAAAAAAAAAAAAAAAAAAAAAAAAAAAAAAAAAAAAAAAAAAAAAAAAAAAAAAAAAAAAAAAAAAAAAAAAAAAAAAAAAAAAAAAAAAAAAAAAAAAAAAAAAAAAAAAAAAAAAAAAAAAAAAAAAAAAAAAAAAAAAAAAAAAAAAAAAAAAAAAAAAAAAAAAAAAAAAAAAAAAAAAAAAAAAAAAAAAAAAAAAAAAAAAAAAAAAAAAAAAAAAAAAAAAAAAAAAAAAAAAAAAAAAAAAAAAAAAAAAAAAAAAAAAAAAAAAAAAAAAAAAAAAAAAAAAAAAAAAAAAAAAAAAAAAAAAAAAAAAAAAAAAAAAAAAAAAAAAAAAAAAAAAAAAAAAAAAAAAAAAAAAAAAAAAAAAAAAAAAAAAAAAAAAAAAAAAAAAAAAAAAAAAAAAAAAAAAAAAAAAAAAAAAAAAAAAAAAAAAAAAAAAAAAAAAAAAAAAAAAAAAAAAAAAAAAAAAAAAAAAAAAAAAAAAAAAAAAAAAAAAAAAAAAAAAAAAAAAAAAAAAAAAAAAAAAAAAAAAAAAAAAAAAAAAAAAAAAAAAAAAAAAAAAAAAAAAAAAAAAAAAAAAAAAAAAAAAAAAAAAAAAAAAAAAAAAAAAAAAAAAAAAAAAAAAAAAAAAAAAAAAAAAAAAAAAAAAAAAAAAAAAAAAAAAAAAAAAAAAAAAAAAAAAAAAAAAAAAAAAAAAAAAAAAAAAAAAAAAAAAAAAAAAAAAAAAAAAAAAAAAAAAAAAAAAAAAAAAAAAAAAAAAAAAAAAAAAAAAAAAAAAAAAAAAAAAAAAAAAAAAAAAAAAAAAAAAAAAAAAAAAAAAAAAAAAAAAAAAAAAAAAAAAAAAAAAAAAAAAAAAAAAAAAAAAAAAAAAAAAAAAAAAAAAAAAAAAAAAAAAAAAAAAAAAAAAAAAAAAAAAAAAAAAAAAAAAAAAAAAAAAAAAAAAAAAAAAAAAAAAAAAAAAAAAAAAAAAAAAAAAAAAAAAAAAAAAAAAAAAAAAAAAAAAAAAAAAAAAAAAAAAAAAAAAAAAAAAAAAAAAAAAAAAAAAAAAAAAAAAAAAAAAAAAAAAAAAAAAAAAAAAAAAAAAAAAAAAAAAAAAAAAAAAAAAAAAAAAAAAAAAAAAAAAAAAAAAAAAAAAAAAAAAAAAAAAAAAAAAAAAAAAAAAAAAAAAAAAAAAAAAAAAAAAAAAAAAAAAAAAAAAAAAAAAAAAAAAAAAAAAAAAAAAAAAAAAAAAAAAAAAAAAAAAAAAAAAAAAAAAAAAAAAAAAAAAAAAAAAAAAAAAAAAAAAAAAAAAAAAAAAAAAAAAAAAAAAAAAAAAAAAAAAAAAAAAAAAAAAAAAAAAAAAAAAAAAAAAAAAAAAAAAAAAAAAAAAAAAAAAAAAAAAAAAAAAAAAAAAAAAAAAAAAAAAAAAAAAAAAAAAAAAAAAAAAAAAAAAAAAAAAAAAAAAAAAAAAAAAAAAAAAAAAAAAAAAAAAAAAAAAAAAAAAAAAAAAAAAAAAAAAAAAAAAAAAAAAAAAAAAAAAAAAAAAAAAAAAAAAAAAAAAAAAAAAAAAAAAAAAAAAAAAAAAAAAAAAAAAAAAAAAAAAAAAAAAAAAAAAAAAAAAAAAAAAAAAAAAAAAAAAAAAAAAAAAAAAAAAAAAAAAAAAAAAAAAAAAAAAAAAAAAAAAAAAAAAAAAAAAAAAAAAAAAAAAAAAAAAAAAAAAAAAAAAAAAAAAAAAAAAAAAAAAAAAAAAAAAAAAAAAAAAAAAAAAAAAAAAAAAAAAAAAAAAAAAAAAAAAAAAAAAAAAAAAAAAAAAAAAAAAAAAAAAAAAAAAAAAAAAAAAAAAAAAAAAAAAAAAAAAAAAAAAAAAAAAAAAAAAAAAAAAAAAAAAAAAAAAAAAAAAAAAAAAAAAAAAAAAAAAAAAAAAAAAAAAAAAAAAAAAAAAAAAAAAAAAAAAAAAAAAAAAAAAAAAAAAAAAAAAAAAAAAAAAAAAAAAAAAAAAAAAAAAAAAAAAAAAAAAAAAAAAAAAAAAAAAAAAAAAAAAAAAAAAAAAAAAAAAAAAAAAAAAAAAAAAAAAAAAAAAAAAAAAAAAAAAAAAAAAAAAAAAAAAAAAAAAAAAAAAAAAAAAAAAAAAAAAAAAAAAAAAAAAAAAAAAAAAAAAAAAAAAAAAAAAAAAAAAAAAAAAAAAAAAAAAAAAAAAAAAAAAAAAAAAAAAAAAAAAAAAAAAAAAAAAAAAAAAAAAAAAAAAAAAAAAAAAAAAAAAAAAAAAAAAAAAAAAAAAAAAAAAAAAAAAAAAAAAAAAAAAAAAAAAAAAAAAAAAAAPZYQJYU5D+g1hprxpHaaI9tOLOUBu4IH1QTgn6m8NgF4Pv/BK5SojjDYP09DTAkWx47vBxrqc58RrDxg3JFk1UN+Ys=</c2pa:manifest></metadata>
  <!-- Soil Food Web Foundation icon set. 24x24 grid, 1px stroke, round caps.
       Use: <svg class="icon"><use href="#i-web"/></svg>
       Mechanisms (Science) -->
  <symbol id="i-web" viewBox="0 0 24 24">
    <circle cx="5" cy="6" r="1.4"/><circle cx="18" cy="5" r="1.4"/><circle cx="12" cy="12" r="1.6"/><circle cx="5" cy="18" r="1.4"/><circle cx="19" cy="17" r="1.4"/>
    <path d="M6.3 6.7 10.8 10.9M16.7 5.8 13.2 10.6M6.2 17.2 10.7 13.2M17.7 16.2 13.4 13.1M5 7.4v9.2M18 6.4l1 9.2"/>
  </symbol>
  <symbol id="i-cycle" viewBox="0 0 24 24">
    <path d="M12 2v9c0 3-2 5-4 7M12 11c0 3 2 5 4 7M12 6c-2 0-3 1-4 3M12 8c2 0 3 1 4 2.5"/>
    <path d="M4 14c-1.5 2.5-1 5.5 1.2 7.3M20 14c1.5 2.5 1 5.5-1.2 7.3M5.2 21.3H3.4M5.2 21.3v-1.8M18.8 21.3h1.8M18.8 21.3v-1.8"/>
  </symbol>
  <symbol id="i-aggregate" viewBox="0 0 24 24">
    <path d="M7 5.5 10.5 4 13 7 11 10 7.5 9.5zM14 8.5 18 8l2 3.5-2.5 3-3-1zM5 12 8.5 12.5 9.5 16 6.5 18.5 3.5 16zM11 15l3.5-1 2.5 3-1.5 3.5-3.5-.5z"/>
    <path d="M9.5 9.5 12 13.5M13.5 11.5l.5 2.5M9.5 13.5l1.5 1.5"/>
  </symbol>
  <symbol id="i-weed" viewBox="0 0 24 24">
    <path d="M12 21V9M12 13c-3 0-5-2-6-5 3 0 5 1.5 6 5zM12 11c3 0 5-2 6-5-3 0-5 1.5-6 5z"/>
    <path d="M4 16.5h16M6 19.5h12"/>
  </symbol>
  <symbol id="i-shield" viewBox="0 0 24 24">
    <path d="M12 21c-4-2-7-5-7-10V6l7-3 7 3v5c0 5-3 8-7 10z"/>
    <path d="M12 21V11M12 11c-2.5 0-4-1.5-4.5-4 2.5 0 4 1.5 4.5 4zM12 13.5c2.5 0 4-1.5 4.5-4-2.5 0-4 1.5-4.5 4z"/>
  </symbol>
  <symbol id="i-carbon" viewBox="0 0 24 24">
    <path d="M12 2v10M9 9l3 3 3-3"/>
    <path d="M3 15h18M3 18.5h18M3 22h18"/>
  </symbol>
  <!-- Programmes (Learn) -->
  <symbol id="i-microscope" viewBox="0 0 24 24">
    <path d="M9 3l5 2-4 9-5-2zM8 13l-1 2M13 5l1.5 1M6 21h13M9 21c-1.5-1-2-2.5-2-4M19 21c0-4-3-7-7-7"/>
  </symbol>
  <symbol id="i-compost" viewBox="0 0 24 24">
    <path d="M3 20c2-6 6-10 9-10s7 4 9 10z"/>
    <path d="M9 7c0-1.5 1-2 1-3.5M12 6c0-1.5 1-2 1-3.5M15 7c0-1.5 1-2 1-3.5"/>
    <path d="M8 16h8M10 18.5h4"/>
  </symbol>
  <symbol id="i-flask" viewBox="0 0 24 24">
    <path d="M9 3h6M10 3v6l-5 9c-.7 1.2.2 2.7 1.6 2.7h10.8c1.4 0 2.3-1.5 1.6-2.7l-5-9V3"/>
    <path d="M7 16h10M12.5 12.5v.01M10 14.5v.01"/>
  </symbol>
  <symbol id="i-field" viewBox="0 0 24 24">
    <path d="M3 8h18v13H3zM3 14.5h18M12 8v13"/>
    <path d="M7.5 21v-4M7.5 18c-1.5 0-2.5-1-3-2.5 1.5 0 2.5.8 3 2.5zM16.5 12v-3M16.5 10.5c1.5 0 2.5-1 3-2.5-1.5 0-2.5.8-3 2.5z"/>
  </symbol>
  <symbol id="i-practicum" viewBox="0 0 24 24">
    <path d="M3 3h7.5v7.5H3zM13.5 3H21v7.5h-7.5zM3 13.5h7.5V21H3zM13.5 13.5H21V21h-7.5z"/>
  </symbol>
  <symbol id="i-webinar" viewBox="0 0 24 24">
    <path d="M3 5h18v11H3zM9 20h6M12 16v4"/>
    <path d="M9 12l3-4 3 4"/>
  </symbol>
  <symbol id="i-workshop" viewBox="0 0 24 24">
    <path d="M12 22c-4-5-7-8.5-7-12.5a7 7 0 0 1 14 0C19 13.5 16 17 12 22z"/>
    <path d="M9 9.5c0-1.5 1.5-3 3-3s3 1.5 3 3M12 6.5V4"/>
  </symbol>
  <symbol id="i-calendar" viewBox="0 0 24 24">
    <path d="M3 5h18v16H3zM3 9.5h18M8 3v4M16 3v4"/>
    <path d="M7 13h2M11 13h2M15 13h2M7 17h2M11 17h2"/>
  </symbol>
  <symbol id="i-document" viewBox="0 0 24 24">
    <path d="M6 2h8l5 5v15H6zM14 2v5h5M9 12h7M9 15.5h7M9 19h5"/>
  </symbol>
  <symbol id="i-person" viewBox="0 0 24 24">
    <circle cx="12" cy="8" r="4"/><path d="M4 21c0-4 3.5-7 8-7s8 3 8 7"/>
  </symbol>
  <symbol id="i-scholarship" viewBox="0 0 24 24">
    <path d="M2 9l10-4 10 4-10 4z"/><path d="M6 11v5c2 2 10 2 12 0v-5M22 9v6"/>
  </symbol>
  <!-- UI -->
  <symbol id="i-menu" viewBox="0 0 24 24"><path d="M3 6.5h18M3 12h18M3 17.5h18"/></symbol>
  <symbol id="i-close" viewBox="0 0 24 24"><path d="M5 5l14 14M19 5L5 19"/></symbol>
  <symbol id="i-plus" viewBox="0 0 24 24"><path d="M12 4v16M4 12h16"/></symbol>
  <symbol id="i-arrow" viewBox="0 0 24 24"><path d="M4 12h15M14 7l5 5-5 5"/></symbol>
  <symbol id="i-download" viewBox="0 0 24 24"><path d="M12 3v13M7 11l5 5 5-5M4 21h16"/></symbol>
  <symbol id="i-external" viewBox="0 0 24 24"><path d="M14 4h6v6M20 4l-9 9M18 13v7H4V6h7"/></symbol>
</svg>
